<svg width="40" height="40" viewBox="0 0 40 40" fill="none" xmlns="http://www.w3.org/2000/svg">
<mask id="mask0_67_83" style="mask-type:alpha" maskUnits="userSpaceOnUse" x="0" y="0" width="40" height="40">
<path d="M40 20C40 8.9543 31.0457 0 20 0C8.9543 0 0 8.9543 0 20C0 31.0457 8.9543 40 20 40C31.0457 40 40 31.0457 40 20Z" fill="#F0F0F6"/>
</mask>
<g mask="url(#mask0_67_83)">
<path d="M40 0H0V40H40V0Z" fill="#F0FDF4"/>
<path fill-rule="evenodd" clip-rule="evenodd" d="M13.8368 23.3026C14.7643 22.375 16.0223 21.8539 17.334 21.8539H22.9494C24.2612 21.8539 25.5191 22.375 26.4466 23.3026C27.3742 24.2301 27.8953 25.488 27.8953 26.7998V28.3284C27.8953 28.7663 27.5403 29.1213 27.1023 29.1213C26.6644 29.1213 26.3094 28.7663 26.3094 28.3284V26.7998C26.3094 25.9087 25.9554 25.0541 25.3253 24.4239C24.6951 23.7938 23.8406 23.4398 22.9494 23.4398H17.334C16.4429 23.4398 15.5883 23.7938 14.9582 24.4239C14.328 25.0541 13.974 25.9087 13.974 26.7998V28.3284C13.974 28.7663 13.619 29.1213 13.1811 29.1213C12.7432 29.1213 12.3882 28.7663 12.3882 28.3284V26.7998C12.3882 25.488 12.9093 24.2301 13.8368 23.3026Z" fill="#141414"/>
<path fill-rule="evenodd" clip-rule="evenodd" d="M20.1404 12.9988C18.6562 12.9988 17.453 14.2019 17.453 15.6862C17.453 17.1704 18.6562 18.3736 20.1404 18.3736C21.6246 18.3736 22.8278 17.1704 22.8278 15.6862C22.8278 14.2019 21.6246 12.9988 20.1404 12.9988ZM15.8672 15.6862C15.8672 13.3261 17.7804 11.4129 20.1404 11.4129C22.5004 11.4129 24.4136 13.3261 24.4136 15.6862C24.4136 18.0462 22.5004 19.9594 20.1404 19.9594C17.7804 19.9594 15.8672 18.0462 15.8672 15.6862Z" fill="#141414"/>
</g>
</svg>
