<svg width="40" height="40" viewBox="0 0 40 40" fill="none" xmlns="http://www.w3.org/2000/svg">
<mask id="mask0_67_151" style="mask-type:alpha" maskUnits="userSpaceOnUse" x="0" y="0" width="40" height="40">
<path d="M40 20C40 8.9543 31.0457 0 20 0C8.9543 0 0 8.9543 0 20C0 31.0457 8.9543 40 20 40C31.0457 40 40 31.0457 40 20Z" fill="#F0F0F6"/>
</mask>
<g mask="url(#mask0_67_151)">
<path d="M40 0H0V40H40V0Z" fill="#F0FDF4"/>
<path d="M20.0434 29.8148C17.5694 29.8236 15.1931 28.8415 13.4356 27.0839C11.678 25.3264 10.6829 22.937 10.6685 20.4398C10.6829 17.9426 11.678 15.5532 13.4356 13.7957C15.1931 12.0381 17.5694 11.0561 20.0434 11.0649C22.5173 11.0561 24.8937 12.0381 26.6512 13.7957C28.4088 15.5532 29.4039 17.9426 29.4183 20.4398C29.4039 22.937 28.4088 25.3264 26.6512 27.0839C24.8937 28.8415 22.5173 29.8236 20.0434 29.8148ZM20.0434 12.7193C19.0316 12.7076 18.0276 12.8987 17.0895 13.2814C16.1514 13.6642 15.298 14.2311 14.5784 14.9491C13.8589 15.6672 13.2877 16.5223 12.8978 17.4648C12.508 18.4073 12.3074 19.4185 12.3074 20.4398C12.3074 21.4612 12.508 22.4724 12.8978 23.4149C13.2877 24.3574 13.8589 25.2124 14.5784 25.9305C15.298 26.6486 16.1514 27.2154 17.0895 27.5982C18.0276 27.981 19.0316 28.172 20.0434 28.1604C22.0826 28.1692 24.0421 27.3614 25.4923 25.9141C26.9424 24.4669 27.7649 22.4982 27.7794 20.4398C27.7649 18.3814 26.9424 16.4128 25.4923 14.9655C24.0421 13.5182 22.0826 12.7105 20.0434 12.7193V12.7193Z" fill="#141414"/>
<path d="M20.0327 25.1939C19.4793 25.1968 18.9309 25.0891 18.419 24.8771C17.907 24.6651 17.4417 24.3529 17.0497 23.9587C16.8963 23.8036 16.8101 23.5933 16.8101 23.3741C16.8101 23.1549 16.8963 22.9446 17.0497 22.7895C17.2034 22.6346 17.4117 22.5476 17.6289 22.5476C17.846 22.5476 18.0543 22.6346 18.208 22.7895C18.6986 23.2779 19.36 23.5516 20.0491 23.5516C20.7381 23.5516 21.3995 23.2779 21.8902 22.7895C22.0438 22.6346 22.2522 22.5476 22.4693 22.5476C22.6865 22.5476 22.8947 22.6346 23.0484 22.7895C23.2019 22.9446 23.2881 23.1549 23.2881 23.3741C23.2881 23.5933 23.2019 23.8036 23.0484 23.9587C22.6511 24.3549 22.1802 24.668 21.6626 24.88C21.1451 25.092 20.5912 25.1987 20.0327 25.1939V25.1939Z" fill="#141414"/>
<path d="M16.9619 20.1532C17.4266 20.1532 17.8033 19.773 17.8033 19.3039C17.8033 18.8349 17.4266 18.4547 16.9619 18.4547C16.4973 18.4547 16.1206 18.8349 16.1206 19.3039C16.1206 19.773 16.4973 20.1532 16.9619 20.1532Z" fill="#141414"/>
<path d="M23.3213 20.1532C23.786 20.1532 24.1627 19.773 24.1627 19.3039C24.1627 18.8349 23.786 18.4547 23.3213 18.4547C22.8567 18.4547 22.48 18.8349 22.48 19.3039C22.48 19.773 22.8567 20.1532 23.3213 20.1532Z" fill="#141414"/>
<path d="M20.3384 16.1935C20.0046 16.1949 19.6738 16.1298 19.365 16.0019C19.0562 15.8739 18.7754 15.6857 18.5388 15.4479C18.3023 15.2102 18.1146 14.9276 17.9865 14.6164C17.8584 14.3052 17.7925 13.9716 17.7925 13.6346C17.7925 12.9531 18.0607 12.2994 18.5381 11.8175C19.0156 11.3356 19.6632 11.0648 20.3384 11.0648V12.7192C20.0979 12.7192 19.8672 12.8157 19.6971 12.9873C19.527 13.159 19.4315 13.3919 19.4315 13.6346C19.4343 13.8755 19.5312 14.1055 19.701 14.2748C19.8707 14.4441 20.0997 14.5391 20.3384 14.5391C20.4829 14.5408 20.6257 14.5077 20.7549 14.4425C20.8842 14.3773 20.9961 14.2818 21.0814 14.1641L22.3926 15.1567C22.1534 15.4786 21.8433 15.7399 21.4867 15.9198C21.1302 16.0998 20.737 16.1935 20.3384 16.1935V16.1935Z" fill="#141414"/>
</g>
</svg>
