<svg width="40" height="40" viewBox="0 0 40 40" fill="none" xmlns="http://www.w3.org/2000/svg">
<mask id="mask0_67_170" style="mask-type:alpha" maskUnits="userSpaceOnUse" x="0" y="0" width="40" height="40">
<path d="M40 20C40 8.9543 31.0457 0 20 0C8.9543 0 0 8.9543 0 20C0 31.0457 8.9543 40 20 40C31.0457 40 40 31.0457 40 20Z" fill="#F0F0F6"/>
</mask>
<g mask="url(#mask0_67_170)">
<path d="M40 0H0V40H40V0Z" fill="#F0FDF4"/>
<path d="M21.1432 29.4972C20.7161 29.4972 20.362 29.1431 20.362 28.716V24.4035C20.362 22.6014 18.8932 21.1327 17.0911 21.1327C15.2891 21.1327 13.8203 22.6014 13.8203 24.4035V28.716C13.8203 29.1431 13.4661 29.4972 13.0391 29.4972C12.612 29.4972 12.2578 29.1431 12.2578 28.716V24.4035C12.2578 21.7368 14.4245 19.5702 17.0911 19.5702C19.7578 19.5702 21.9245 21.7368 21.9245 24.4035V28.716C21.9245 29.1431 21.5703 29.4972 21.1432 29.4972Z" fill="#141414"/>
<path d="M17.1024 18.5594C15.4253 18.5594 14.0503 17.1948 14.0503 15.5073C14.0503 13.8198 15.4149 12.4657 17.1024 12.4657C18.7899 12.4657 20.1545 13.8303 20.1545 15.5178C20.1545 17.2053 18.7899 18.5698 17.1024 18.5698V18.5594ZM17.1024 14.0282C16.2795 14.0282 15.6128 14.6948 15.6128 15.5178C15.6128 16.3407 16.2795 17.0073 17.1024 17.0073C17.9253 17.0073 18.592 16.3407 18.592 15.5178C18.592 14.6948 17.9253 14.0282 17.1024 14.0282Z" fill="#141414"/>
<path d="M29.2677 29.3831C28.8406 29.3831 28.4864 29.0289 28.4864 28.6018V23.7789C28.4864 21.706 26.7989 20.0289 24.7364 20.0289C23.9239 20.0289 23.1427 20.2893 22.4969 20.7685C22.1531 21.0289 21.6635 20.956 21.4031 20.6123C21.1427 20.2685 21.2156 19.7789 21.5594 19.5185C22.4864 18.831 23.5802 18.4664 24.7364 18.4664C27.6635 18.4664 30.0489 20.8518 30.0489 23.7789V28.6018C30.0489 29.0289 29.6948 29.3831 29.2677 29.3831Z" fill="#141414"/>
<path d="M24.736 17.1329C22.9027 17.1329 21.4131 15.6433 21.4131 13.81C21.4131 11.9767 22.9027 10.4871 24.736 10.4871C26.5693 10.4871 28.0589 11.9767 28.0589 13.81C28.0589 15.6433 26.5693 17.1329 24.736 17.1329ZM24.736 12.06C23.7673 12.06 22.9756 12.8517 22.9756 13.8204C22.9756 14.7892 23.7673 15.5808 24.736 15.5808C25.7048 15.5808 26.4964 14.7892 26.4964 13.8204C26.4964 12.8517 25.7048 12.06 24.736 12.06Z" fill="#141414"/>
</g>
</svg>
